<?xml version="1.0" standalone="no"?>
<!DOCTYPE svg PUBLIC "-//W3C//DTD SVG 20010904//EN"
 "http://www.w3.org/TR/2001/REC-SVG-20010904/DTD/svg10.dtd">
<svg version="1.0" xmlns="http://www.w3.org/2000/svg"
 width="16.000000pt" height="16.000000pt" viewBox="0 0 16.000000 16.000000"
 preserveAspectRatio="xMidYMid meet">
<metadata>
Created by potrace 1.11, written by Peter Selinger 2001-2013
</metadata>
<g transform="translate(0.000000,16.000000) scale(0.006154,-0.006154)"
fill="#000000" stroke="none">
<path d="M1139 2581 c-20 -16 -32 -17 -74 -10 -28 4 -106 8 -175 8 -363 2
-675 -115 -750 -282 -12 -26 -20 -65 -20 -101 0 -117 73 -186 196 -186 120 1
217 83 202 171 -4 24 -5 24 -16 -4 -22 -52 -63 -96 -115 -122 -61 -30 -91 -31
-134 -5 -102 62 -92 191 21 299 88 82 236 146 410 176 88 15 319 19 364 7 22
-7 20 -11 -39 -77 -83 -92 -169 -225 -269 -415 -104 -197 -160 -281 -231 -351
-107 -104 -252 -153 -342 -116 -63 27 -76 96 -28 149 25 29 36 33 78 33 26 0
62 -4 78 -8 28 -8 29 -7 11 7 -23 19 -114 31 -163 21 -24 -4 -51 -21 -76 -46
-37 -37 -39 -42 -34 -85 3 -28 13 -54 28 -70 48 -51 193 -69 300 -38 120 35
226 121 344 277 57 76 58 77 104 77 60 0 170 16 246 36 203 51 395 227 395
361 0 24 -6 58 -14 76 -26 63 -134 141 -251 182 -19 6 -18 8 10 31 l30 24 -31
0 c-17 0 -42 -8 -55 -19z m167 -143 c24 -22 48 -56 55 -75 45 -136 -109 -322
-330 -399 -70 -24 -226 -52 -237 -42 -5 6 226 413 300 528 l45 69 62 -21 c39
-13 79 -36 105 -60z"/>
<path d="M1401 1844 c-106 -28 -215 -107 -257 -185 -24 -44 -24 -151 -1 -195
l16 -31 -61 -11 c-197 -37 -340 -182 -341 -347 -1 -49 5 -71 25 -106 35 -59
62 -83 133 -116 55 -26 69 -28 180 -28 101 0 130 4 180 23 81 31 152 85 199
155 34 49 40 65 40 111 1 40 -5 62 -21 84 l-21 29 70 11 c39 6 99 24 134 42
87 43 117 94 98 168 -10 36 -26 25 -18 -14 9 -46 -18 -76 -106 -117 -64 -30
-68 -31 -280 -38 -118 -4 -230 -12 -248 -17 -45 -15 -99 -49 -117 -75 -19 -27
-19 -90 -1 -126 16 -29 81 -92 115 -110 40 -22 31 8 -13 39 -77 56 -85 125
-20 178 45 38 95 52 178 52 152 0 213 -78 155 -197 -29 -60 -117 -137 -187
-163 -45 -17 -74 -21 -138 -18 -70 3 -85 7 -117 31 -59 45 -82 98 -82 192 0
69 4 89 31 145 42 88 83 133 156 170 74 36 87 37 133 6 66 -45 175 -43 175 3
0 32 -29 46 -109 51 l-76 5 -3 44 c-5 65 22 124 89 195 65 70 153 120 238 136
64 12 126 -1 141 -30 17 -32 12 -41 -15 -28 -52 23 -110 -35 -84 -85 15 -29
28 -37 59 -37 38 0 68 26 80 70 15 56 -6 102 -59 129 -49 25 -166 28 -250 5z
m-56 -434 c38 -15 21 -30 -33 -30 -42 1 -82 17 -82 34 0 10 86 7 115 -4z"/>
<path d="M2466 1517 c-50 -52 -53 -54 -138 -70 -177 -34 -352 -104 -462 -185
-27 -20 -68 -62 -92 -95 -105 -142 -96 -289 20 -346 45 -23 53 -24 104 -13 97
20 172 90 192 177 10 43 -5 105 -25 105 -18 0 -20 -16 -4 -26 18 -11 2 -103
-25 -144 -31 -47 -81 -78 -138 -86 -40 -6 -47 -3 -76 25 -79 79 -37 240 94
360 92 84 312 186 448 208 l39 6 -32 -54 c-51 -86 -143 -272 -216 -434 -118
-266 -213 -426 -344 -582 -100 -118 -252 -220 -385 -258 -82 -24 -238 -16
-319 14 -73 29 -148 88 -173 137 -30 62 -27 174 9 245 25 53 76 108 137 152
l25 18 -25 -7 c-77 -19 -160 -112 -191 -216 -75 -246 110 -414 435 -395 124 8
197 26 301 77 308 150 453 354 642 905 30 88 81 214 112 280 l58 121 59 16
c72 20 106 49 102 86 -3 23 -8 27 -42 30 -36 3 -43 -1 -90 -51z m84 -1 c0 -18
-19 -33 -55 -42 l-30 -7 34 36 c33 35 51 40 51 13z"/>
</g>
</svg>
